<?xml version="1.0" standalone="no"?><!DOCTYPE svg PUBLIC "-//W3C//DTD SVG 1.1//EN" "http://www.w3.org/Graphics/SVG/1.1/DTD/svg11.dtd"><svg t="1588658084895" class="icon" viewBox="0 0 1024 1024" version="1.1" xmlns="http://www.w3.org/2000/svg" p-id="2523" xmlns:xlink="http://www.w3.org/1999/xlink" width="200" height="200"><defs><style type="text/css"></style></defs><path d="M391.982 64.589H120.334c-30.887 0-55.93 25.043-55.93 55.93v271.648c0 30.887 25.042 55.93 55.93 55.93h271.648c30.887 0 55.93-25.042 55.93-55.93V120.519c0-30.887-25.043-55.93-55.93-55.93z m-8 319.578H127.334V127.519h256.648v256.648z m8 191.789H120.334c-30.887 0-55.93 25.044-55.93 55.931v271.647c0 30.887 25.042 55.931 55.93 55.931h271.648c30.887 0 55.93-25.044 55.93-55.931V631.887c0-30.887-25.043-55.931-55.93-55.931z m-8 319.578H127.334V639.887h256.648v255.647zM903.35 64.589H631.701c-30.887 0-55.93 25.043-55.93 55.93v271.648c0 30.887 25.043 55.93 55.93 55.93H903.35c30.887 0 55.93-25.042 55.93-55.93V120.519c-0.001-30.887-25.044-55.93-55.93-55.93z m-7 319.578H639.701V127.519H896.35v256.648z m7 192.789H632.701c-30.887 0-55.93 25.044-55.93 55.931v270.647c0 30.887 25.043 55.931 55.93 55.931H903.35c30.887 0 55.93-25.044 55.93-55.931V632.887c-0.001-30.887-25.044-55.931-55.93-55.931z m-7 318.578H639.701V639.887H896.35v255.647z" p-id="2524" fill="#707070"></path></svg>